<mxfile host="app.diagrams.net" modified="2022-02-22T02:50:38.525Z" agent="5.0 (Windows)" etag="kZ9FxSmZ8iRDvQdhzIXY" version="16.6.2" type="github">
  <diagram id="01AM6pfe-WNgbzpk11U2" name="Page-1">
    <mxGraphModel dx="782" dy="392" grid="1" gridSize="10" guides="1" tooltips="1" connect="1" arrows="1" fold="1" page="1" pageScale="1" pageWidth="827" pageHeight="1169" math="0" shadow="0">
      <root>
        <mxCell id="0" />
        <mxCell id="1" parent="0" />
        <mxCell id="_yJtGHrJg5KDsu-0wr2o-20" style="edgeStyle=orthogonalEdgeStyle;rounded=0;orthogonalLoop=1;jettySize=auto;html=1;exitX=0.5;exitY=0;exitDx=0;exitDy=0;exitPerimeter=0;entryX=1;entryY=0.25;entryDx=0;entryDy=0;" edge="1" parent="1" source="_yJtGHrJg5KDsu-0wr2o-4" target="_yJtGHrJg5KDsu-0wr2o-7">
          <mxGeometry relative="1" as="geometry" />
        </mxCell>
        <mxCell id="_yJtGHrJg5KDsu-0wr2o-21" style="edgeStyle=orthogonalEdgeStyle;rounded=0;orthogonalLoop=1;jettySize=auto;html=1;exitX=0.5;exitY=1;exitDx=0;exitDy=0;exitPerimeter=0;entryX=1;entryY=0.75;entryDx=0;entryDy=0;" edge="1" parent="1" source="_yJtGHrJg5KDsu-0wr2o-4" target="_yJtGHrJg5KDsu-0wr2o-10">
          <mxGeometry relative="1" as="geometry" />
        </mxCell>
        <mxCell id="_yJtGHrJg5KDsu-0wr2o-23" style="edgeStyle=orthogonalEdgeStyle;rounded=0;orthogonalLoop=1;jettySize=auto;html=1;exitX=1;exitY=0.5;exitDx=0;exitDy=0;exitPerimeter=0;" edge="1" parent="1" source="_yJtGHrJg5KDsu-0wr2o-4">
          <mxGeometry relative="1" as="geometry">
            <mxPoint x="410" y="205" as="targetPoint" />
          </mxGeometry>
        </mxCell>
        <mxCell id="_yJtGHrJg5KDsu-0wr2o-4" value="" style="sketch=0;points=[[0.015,0.015,0],[0.985,0.015,0],[0.985,0.985,0],[0.015,0.985,0],[0.25,0,0],[0.5,0,0],[0.75,0,0],[1,0.25,0],[1,0.5,0],[1,0.75,0],[0.75,1,0],[0.5,1,0],[0.25,1,0],[0,0.75,0],[0,0.5,0],[0,0.25,0]];verticalLabelPosition=bottom;html=1;verticalAlign=top;aspect=fixed;align=center;pointerEvents=1;shape=mxgraph.cisco19.rect;prIcon=monitor;fillColor=#FAFAFA;strokeColor=#005073;" vertex="1" parent="1">
          <mxGeometry x="248" y="180" width="64" height="50" as="geometry" />
        </mxCell>
        <mxCell id="_yJtGHrJg5KDsu-0wr2o-19" value="" style="edgeStyle=orthogonalEdgeStyle;rounded=0;orthogonalLoop=1;jettySize=auto;html=1;" edge="1" parent="1" source="_yJtGHrJg5KDsu-0wr2o-5" target="_yJtGHrJg5KDsu-0wr2o-6">
          <mxGeometry relative="1" as="geometry" />
        </mxCell>
        <mxCell id="_yJtGHrJg5KDsu-0wr2o-5" value="" style="shape=image;verticalLabelPosition=bottom;verticalAlign=top;imageAspect=0;image=data:image/jpeg,/9j/4AAQSkZJRgABAQAAAQABAAD/2wCEAAkGBxAQEhUQEhIVEhUWFRgVFhcXFhUVGBYXFxUWGBUVFRcbHikhGB4oHBYVIzIiJiosLy8vFyA0OTQuOCkuLywBCgoKDg0OHBAQHC4mICYwLi4uLi4uLi4uLi4uLi4uLi4uLi4uLi4uLi4uLi4uLi4uLi4uLi4uLi4uLi4uLi4uLv/AABEIAKwBJgMBIgACEQEDEQH/xAAbAAEAAgMBAQAAAAAAAAAAAAAABQYBAwcEAv/EADsQAAEDAgQCCAUCBQQDAQAAAAEAAgMEEQUGEiExURNBUmFxgZGxIjKhwdEH4SNCYoKSM3Ki8BQkUxb/xAAaAQEAAwEBAQAAAAAAAAAAAAAAAwQFAgEG/8QAMREAAgICAAQEBQMEAwEAAAAAAAECAwQRBRIhMRMiQVEUI2FxoTKRsTNC4fAGUtEV/9oADAMBAAIRAxEAPwDuCIiAIiIAiIgCIiAIiIAiIgCIiAIiIAiXWmeoYwanuDRzJsgfQ3ItMFQx4uxwcO4graCgMosXS6AyiIgCIiAIiIAiIgCIiAIiIAiIgCIiAIiIAiIgCIiAIiIAiIgCIiAIiIAixdRmN4zHSsLn7k/K3rcfx3r2KcnqPc8lJRW2bMXxWOmYXvPcB1uPUAucV1XUYhLs0uO+hg4NHntfvKE1GIz8yf8AFjfx7roOBYLHSs0t3cfmceJP2C0koYa33n/BQfNkv2j/ACc1hpalj3BjZGvZ8wbcEd9hxHepOkzXVxHS8h/c8Wd68Vc8bwkvInhOiZnynqcOtju5aaGSnrWESRN6Rp0vY4DU0+9l7LLhYtzgmvXXRnixpQeoyaPDQ53hdtKx0fePiH03Vho8Tgm3jka7wO/pxVZxXKdIBqbN0Pc4gt9DuqlU0hjfaN4lt/NHq28dlzHGovfy20/qHkXVfrSaOvrN1QMmY1KZRBI4va4HTc3II349fBX1qpXUypnySLdNytjzI+kRFETBERAEREAREQBERAEREAREQBERAEREAREQBERAEREAREQBCiLxghsw42ykZc/E919DeduJPIBUKmp6jEJiSSSfmcflY2/AfYKY/UWEiSJ/UWlvmDf7rZknExE0QvbpD3HQ/qc6+7SeorVpXg4/iw/U/wAGba/Eu8OXYtWEYVHTM0MHietx5le8r5C0VtbHCwySODWj/tgszbnLfdmgkor20fVXUMjaXvcGtAuSeComKCSeVtUGuhie5sWoEte5pPzkDqPep2mpJK1wmnBZEDeOE/zcnyfhe3M1LrpZA3i0ah4t3HsrFUlXLXdvo/p9iCxOxb9D5gy1St3MfSO5yOLz9SpSKmY0WaxrRyAAWrC6jpYo5O0xp9QLr1lQTlJvqyaMY62kcplvTVvLRN/xLr+xXVWlc4z5TaanWP52g+Y2P2V4wGp6WCN/Nov4jYq/m+equz6aKWJ5LJwJFERZxoBERAEREAREQBERAEREAREQBERAEREAREQBERAEREAREQBERAVfPtNqp9fWx4Pkdj7hRGT4I6mGWmk3AcHt6i0nrB6jcK4YzT9LBIzmw+2yoWRqnRUhp/naW+Y3HsVoUPmxZxXdPZQuXLfFvsywwY26jvDV3JaLseB/qN6uHBy3YfQvqnipqfl4xRdTR2nc3FfOK0zKqsjhcLsjjL3eLtmj3K9By8Y96eeSHuvrZ/iVBJwS2ukn39v8EqjJvXdInQF8ysDgQesEeqgv/Jr4fniZUN5xnS7/ABOx9VugzJTk6X6oXcpGlv14KF1y7rqTeJF9GfGT3kQmI8YpHx+Qdt9FOqtYTURsrJ2B7dMgbK2xFr2s78qTqcdpo/mlbfkDqPoF1ZCTntLv1Oa5xUer7EF+oVNeNklvldY/3fuFvyBU6oCy/wAjiPJ24+6j805jhlhMLWSfFYgubpGxG4vufRav07e7pJR/LpBPjfb6Eq7yS+Dal6PoU+ePxacfYvoKysBZWaaQREQBERAEREAREQBERAEREAREQBERAEREAREQBERAEREAREQHw4LlM/8A6tYT/wDOa/8Abe/sV1ghc9z1hr2zdOGkteBcgcHAW35bW3V7h0oqxxl6pop5sW4KS9CxZZ/imaq/+shDf9jNm/dWBc1wXNclOwRljXsGw6nevBWeizhSyfMTEeTht/kFzkYtsZb10/c9pyK2tb6ljstM9Mx4s5ocORAKQVLHi7HBw7jdZqJgxrnng0Eny3VNLRZ2min0+A08tZKA20cYaC0EgF5G427upe/F6ikoG2ZEzpD8rQBfxceNlFU+ONpacv8Amnmc6W3ZDibF3gOpQ+FYXPXyl7ibX+OQ+zef2WnGly89r1FdPvoz5WKK5a1uT/B80dJUYhMTe+/xOPytHID7Lo+EYXHTM0MHiTxceZX3h1BHAwRxiwH17zzK9YVbIyXb5V0iuyLGPjKvq+r9zKIiqloIiIAiIgCIiAIiIAiIgCIiAIiIAiIgCIiAIiIAiIgCIiAIiIDBXy5oOxF19ogIavy5SzfNGAebfhP0VfrsinjDL/a8fcK8rFlPXlXV/pkQzx659Wjlc2D1tMdQa8W64ySPovmbMdU6N0L33BFjcDVblddVK8dThUEpvJExx5lourSz4v8AqQT+xXeHL+yRzrLuAPq3XN2xji7rPc38rpVFSshYI2NDWjgAtkMTWANaA0DYACwHgFssq2RkzufXt7E1GPGpfUBZRFXLAREQBERAES6IAiIgCIiAIiIAiIgCIiAIiIAsFZWmpvpdp3NjYd9kPH2KrWZ2Y0lrYnOsSLlwaNj5q0UUxexryLFzQSONrjgqBBlCqebvDWi+93XPHfguhxtsAB1Cyt5UaYqKqe/cp4sr5OTt7ehsCLAKXVQumUKxqWCUBhzrC52VTxLOjGOLYmdJY21E2B8Oaks31Rjpn2Ni74R57G3ldUbL9AKidsbvl3cbch1dy0MPHrlCVtnZGTnZVsbI01d2TbM8S9cLbdzj+F62Z4ZbeF1+5wI9VJ//AJSjtbo/Rzvyqbmagjp5ujjvbSCbm9iSfspqY4l8+SMWivkTzsaHPKaaLhl/HzVueOj0BoBvqvcm+3DuU8FVMgw2ie/tOt5ABWtZ+TGMbXGPZGphTnOiMpvqzJWFm6xdQbLRlFi6XXoMosXS6AyiXWLoDKwUuviR1gSvNnj6FdxHNbInujDHOLTa9wBdS+FVhmibKW6dQva91zOtl1yPdx1OJHrsun4fDoiY3k0D0C0MvHhVXBruzD4Xm3ZN9nM/Ku37kRimZ2QPMehziLb3AG6kcFxA1EQlLdFybC99gbcbLnuMza5pHf1e2y6DgMOinibw+AfXcplUQqqi13Y4dnXZOVNN+WO/T6kmiwl1QN0yiIgCIiAIiIAiIgMKLzFiBp4HSttqFgL8yVKFVL9Qp7Qxs7T7+TR+SFLRDntjF+5DkTcKnJHgwLH6qoqGMc4BpuSA21wAVbsZqzDC+UcWtJHj1KmZAgvO9/ZZ7n8BTue59NNp7Tw3y3J9lcyaofEquK6dCljWyWLKyT6kDQZtm6UOmcOjANw1vHbb7L6rs6TO2iaIxzPxH8BQuC4W+pk6NpA2uSeoflXekylSxj4mmQ24uJt5AKzkRxKZ9Vt+xTx/i7oeWWl7sqkOaatrtRfq33BAse5X51cDTmcbfw9f/G65XVadbtIsNRsO6+y6rhtKBBHG4AgRtBB3B2F1DxCuuChKK1sl4bOycpxk9nOMQxueoaGSOBAN9gButFBXyQO1xkA2tuAdlL51ZGyZrGNa0Bm9gBuT+yk8j4fG+J73sa67rC4vwHerburrxubl6P0KCotsyvD5+q9TflHFKioe8yOBa1o4AD4ifwFWczTa6qU/1af8QB9l0hkEcTXFjWsFrmwAvYLlEzi97j1uJPqVBguM7pTS0kuxY4nGVdEK5PbbOkZUh0UsfeC71N1AY9maeOZ8cZaGtNr2ueAurfSxdHG1vZaB6BcrxCXXLI/jcuP1P7KHCrjddKUltf5JeJWTox4Qg9Pt+DpGXJ5JIGSSG7nXPLa+y05pxV9NEHMtqLrC/wBV78Lh6OGNnCzGjzt+VVf1Amu6KPuc4/QD7qvjwVmQl6bZby7ZU4jlvrpdT7yvi9RUT2e67Q0kgADlZSeasQnp2NfFbSTZ1xci/BRf6fw/6j/BvurTiVGJo3RnrFvPqK7yPDhk6S6LXQgw422YW+Z8z3pldyljkkz3RyuuT8TdreIUzjuKtpoy7i47NHM/hc7pJn00wdwdG+xHgbOHpdb8UrpKyYEAm50sbyCuWYMZXcy6Q1sz6eKzhjOD62b0SmF41XVEgja4DmdI+Ec1aMYxZtLGHO+Jx2A4Env5L5wDCm00dv5zu88zyHcFVM61BdUab7MbbzPFV4wrycjkitRRbnZdhYfPY25v39NmqozRVOOzgwcgPutIzBVWI6Um/MBTuTsJjdH0z2hxJIbfewG3DxuvXm6GOOnNmNBJa0EADr3U7uoVnhRh66KCxsueP8RK1rpvRTcOi1yxt5uHvuunVL9EbndQaT6BUHKUOqpZ/SC7/vqrfmibRSyHmNI/uNlxxB818YL6fyT8F1XiWWv6/hHO9Vzc9e58zc+6m6nNM5+FlowNh1lR+D0YnmbGb2N7242G66BSYRBELNjb4kXPqVPmXVQklKO2UOF4mTdGUq58qb6v1ZSKfMdU0316x1g2sVfsOqhNG2QcHC65vi7m9NJpFgCRYdyv+XY9NNED2R9d1Xzq4KEZxWmy/wAEvud06py5kvf7koEQIss+lCIiAIiIAiIgMFUD9QZrzMZ2WE+bj+yv5XLs2z66qTus30Cv8Nju7fsjP4lLVOvdli/TyH+HI/m4AeAH7rz/AKiT/wClH/ud9h7lTOTIdFIw9rU71Jt9AFVc7z6qkt7LQPuVLQvEzW/v+CC9+Hgpe+iR/TuDeWTlZv3KteLTdHDI/kwn6KGyHDppi7tPcfSzR7LdnWfRSvHaLW+p/ZV7/mZTX10WKPlYm/ps57QRdJKxvae36nf2XXwLBcyyjBrqo+67vQfuumSusCeQU/FJfNjH2K/CV8uU/dnMM0Ta6qQ8jpHkFd8oQaKWP+oavU7fSy5zUya3ud2iT6ldYoYdETGcmAegXef5aa4EPDFz3zs/3uefH5+jp5Hf0n67Lm2DQ654mc3i/kbn2V2z1Npp9Pae0e5+yrWSoNVSD2WuP2+6YfkxZzOeIfNy4Vr6fyX3FZujhkdyYfZcuw6LpJY2dpzR9d10LN7yKWS3XYeRK59h1X0MrZANWk3t5Lrh0H4U3Hu//Dji818RWpdl3/c601c5zlNqqSOy0N9yfdfeIZtqJAQ20Q7t3ep4KBe8kkkknrJ613g4c6588/2IeKcQruq8Ovf3OgZHh00+rtOJ9Nvsp2eZrGl7jYAXJK8eBQ9HTRA9kE+e591Uc2450zuhYf4bTue0fwFnxqlkXtL3/BqzyI4eLHm76Wl7sicXrGzzPla3SDw5mw4nvU1kVsZkfq+cC7eVv5rd918YLlkywulfsXNPRjv7R8+pQ2G1TqeVr+BabEd3BwWrLltqlTU35T56HiUXwyLl0kdWXLMZm1zyu47keQ2+y6cx4ezU3cEXHouTuvqN+O9/G5uqfCo+aT9kaP8AyCe64L0Z03L0HR08bf6QT4ndQefZto2d5d6Cw91h2cI2xgMjcXAAWOwVWr66Sd+uQ3J4DqA5BdYuLb43iTWuuzjiPEaPhfBre3pLp6FiyFDeSR/Job6m692epbRMZ2newWciwWhc/tPPoNh91HZ7lvIxnJt/U/suf6md9mev5HCOvqv5ZqyPDqnc7ss9z+yu88ga0u6gCfpdUPLWLx02vW1xLiNxbgAfyvXjWaelYY42luoWLjy67JlY9tuRtLoOHZ+PjYenJc3V6K3u93e4+5/ddVpY9LGt5NA+i53lmhMs7ey34nHw4D/vJdKaueJyXNGC9Dv/AI9VJQna/wC5/wC/kyEQIs0+iCIiAIiIAiIgMFViqyZDI9zzI+7iXHhxPkrPZLLuFkoPcXojsqhYtSWzz0lMIo2xjg1oaPJQdflGKaR0rpHguN9reHJWSyWSFs4PcXpnk6a5rlkto8mGULYI2xNJIaLXPE7k/daMbwhtU0Mc4tAOra25t13UnZYsvFNqXN6nTri4cmuhBYLlqKleZGuc42tvb7L149UiOnlde3wkDxOw+qkiqdn1s5a2w/hDd1ufVq7lNXu65c7K1/Lj0S5I/sVXB4OknjZzePpuutBUrI+EOv8A+S8W2swePFyuwCn4jap26XZEHC6HXVzS7si8bwZlUGhznN0kkW7xZasGy/HSuc5rnEuFt7KZsllTVs+Xk30Lzorc/E11NFVTNlY6Nwu1wsVVzkdl9pXaeVhf1VwssWXVd06/0PRxdi1Xa8SO9EJQ5YpoiDp1kdbt/ReWpyhFI9zy941G9treHBWWyWTx7N75mePDoaUeRHiq6HXEYg4sBAbdtr25KGpsmwNcHFznWN7G1j47KzWSyQunBNRetnVmLVY05x3rsfAb1KArspwyyOkLnN1G5Ata/WrFZZsua7JVvcXo6uoruXLNbR4cNouhjEQcXBvAnja+w8lEYnlOKVxe1xjJNzbcX69lZLJZewtnB7i+pxbiU2w5Jx2ir0mTYWm73Of3cB9F6cQyvDMQbllhpAbawAU/ZLLt5Nrlzcz2Rrh+Mo8nItHjw2gbBGImkkC+54m5uvLieAQ1DtbwQ61rg22UtZZUanJS5k+pNLHqlDw3Fa9ipyZLZ/LK4eIBWYcmRj5pHO8LBWqyWUzzL/8Asyp/8nE3vkR5aGgjgbpjaAPqfEr1AJZZVdtvqy/GKitRWkERF4dBERAEREAREQBERAEREAREQGCvh8YIsRcHiDuFsRAfLGgbAWX0iIAiIgCIiAIiIAiIgCIiAIiIAiIgCIiAIiIAiIgCIiAIiID/2Q==" vertex="1" parent="1">
          <mxGeometry x="414" y="154" width="144" height="102" as="geometry" />
        </mxCell>
        <mxCell id="_yJtGHrJg5KDsu-0wr2o-6" value="" style="shape=image;verticalLabelPosition=bottom;verticalAlign=top;imageAspect=0;image=https://logowik.com/content/uploads/images/grafana3182.jpg" vertex="1" parent="1">
          <mxGeometry x="416" y="10" width="140" height="120" as="geometry" />
        </mxCell>
        <mxCell id="_yJtGHrJg5KDsu-0wr2o-7" value="" style="shape=image;verticalLabelPosition=bottom;verticalAlign=top;imageAspect=0;image=https://www.kindpng.com/picc/m/388-3883219_icon-security-testing-web-web-application-testing-icon.png" vertex="1" parent="1">
          <mxGeometry x="40" y="110" width="98" height="53" as="geometry" />
        </mxCell>
        <mxCell id="_yJtGHrJg5KDsu-0wr2o-8" value="Web Application" style="text;html=1;strokeColor=none;fillColor=none;align=center;verticalAlign=middle;whiteSpace=wrap;rounded=0;" vertex="1" parent="1">
          <mxGeometry x="44" y="80" width="90" height="30" as="geometry" />
        </mxCell>
        <mxCell id="_yJtGHrJg5KDsu-0wr2o-9" value="Monitor Application" style="text;html=1;strokeColor=none;fillColor=none;align=center;verticalAlign=middle;whiteSpace=wrap;rounded=0;" vertex="1" parent="1">
          <mxGeometry x="134" y="190" width="115" height="30" as="geometry" />
        </mxCell>
        <mxCell id="_yJtGHrJg5KDsu-0wr2o-10" value="" style="shape=image;verticalLabelPosition=bottom;verticalAlign=top;imageAspect=0;image=data:image/png,iVBORw0KGgoAAAANSUhEUgAAAVIAAACVCAMAAAA9kYJlAAAAk1BMVEUkU/////8bTv9gfv8gUf9aev8NSf+ntf8AQ/8ARv8zX//5+//Dzv/d5P/X3v8VTP8wWv8+ZP9sh/9Ibf+Fm/+hsP8AQf/x9P97kP/s8P+puP8APP/2+P/i5/+brP+6xv9Sc/+0wf+Blv/K0/9zjP/g5f/Q2P8AM/9kgf/u8f+CmP+Pov+yv/8ALv9McP+Tp/9Baf97+WyhAAAISElEQVR4nO2d6XaqOhhAAQOCA8EJizjbWq29bd//6S6joobB8AXB8+0fZ5X2LBO2mUdJfgFm1lul4U3Xg4+rXzht1aKd91XwIFUaFzH0bGLPqgxQpYo1TTwvDdcavh3I558pv4TSuUUkMqgwwA9bkrTt5XnrdnbBDxvDNl9C6VKTJMnYVxfgiXoB2ov4ceOOurLjOF667ROr+wpKJeK9ofZbXYAjP0A6jh87dl/u27qteL9pu+0XULoyvBeUlFZlATrEV0pIN3zsu6r3j70yx5+mPDfUF1B6UHylfo6rCDP4DiUjrN/lb/fX9+rI/f+8wqcjzRuvdB6kGUnS51WF+K0FAdL38HHmzvxUOtxaP7LfGGi+0l2YZiS9X1WIv6FS0gm/xJk78VPp0lL9p7XSfKXRC1ZY5Y9pFGJY5/dcrz3V//zYuP6XSgbdxittKdEL9qoK8S1Sqn0Hj3Pbc9j/z5SttSzv7W3jq6f5gERKN1UFGSulUWt/69VP04lXPS2n8tpr6zdd6TFKpHGaqYBYKfkLn6eW3Y7+9O6Om997MvVYaWW9/FippEe/cDru36o/3S8V32jjlUYtGk/ppqogz0rPfdLupPPpYatBeZ6rdDcetmrF4S1ZEZ3i9yM/MB9+6uX1Gc5KEzVid7Fa7Y7hzzlK9x2bKjWD6tHAj48al6USgflwathfTjGl2oT592ylK5tINYTo55chAiJIlXaWlLNSZfi4UlOrpVHfaZROvUahkI9/z7AyjDNGXOU/ovRHyQz5iSijMIZ7Q8znGxlOR3E6I1dD+4WUzgTFFwLdDKJ4rvDBPz81788vVihzXCFDqVNjo5K2DOIY97fhMdLqqNVFC7sTnKG0Vdts70G/gjiuhcWRblO0JIJkTyWkK/2ucyKN37gjrP4kErOgvCq9KbPETVXqGDWt7UPCNuFCYBzjUftruoNEkGT0kNKWsFIKhLAYE1Xh+1zm65IMk/UhIayphDSlm1pn+3j8dyaqwpdSJgi311ouM8/5Sh2p1tk+bhJ+CcxKjNUWi/XNV8gsHFKUDuud7SVlHURTZKOEdG6cTJfKbXBRU66I0pWQfh4gNFhX1hVX4cdKj/2Afe/7oN13z5m9fKbSac2zfVzhH/X8/8lNqHTp6gGGxsoQxCqq9L3m2d4rxIJhk53IOjRUOsmuAHWGPZbSXt2zvZdKg6q2LbDCL6bUMAsp7YoYg4SFKEFMTyJzUzGljF4+Q+lb7bN9PFIpNKbFlDJaUfdKezVv5PuEFb7QZilgKu1atc/2XlEajmYum1GWbkVGE4qwwpd34htRADW+0FiCYTvic1QRpczRvRulV2NXtYXEsV4KLPeLKGWuwLxROm5CtpcUNY7vQFwnv4BSo8Covln/Rr7PZRLj424kA4x8pSnTqNdKG5HtPaWnc4z7lqi1BjlKCdW/mEavlZ4ake3PzdKA7okYVCEsFIVq/NM9kVI9ZZkPHaYtu04qNRti9GbO57gar0cs1oftcmfydgdCpavDkMH7aZW+biqpVOToIyzMCQo2OQ3LdO6GoIuSUPrbgJ5oRMoCLwZz7qFfAKX9pmR7H6PoMnL+GR8ApaM6Ly65Q2fN+txxVPnTSXmlk+Zk+wBjtMkrUBdtqcRQVWmli0b07ZMQjUpWFhIt1WQtrVTcei2BMFujF0p+eEml7YZl+wooqXTBNNqYZqoQSiplZXui/f3TTsspZa0gJ8ZK5CKu+lNK6UK5T4608yF2mrz2lFLKWEpqHOaCVx7UnjJKv++apEQPhqtRKadS5y7bKyScnUalnErv1pRpg6inh0r5lN6u0SSXGRVUyplKT1ctKGJcjgpApZxKryp8ShIrUlApr9LEZLihJvdPoVJupYuoN0/s660+L6GU8A6xleuQ7oOpWYXeLJZ8BaV0PeR0WnLYZKP7XdDbUfIXUKr8cS+VLjte+uvah7vNe81XSsiRe3956VH9PWPtRPOV+ouUn6aUReOVBnv4UCkkwUp6VAoJlVEpLOHKXlQKSLgMFZUCEu7dRaWAoFJwUCk4qBQcVAoOKgUHlYKDSsFBpeCgUnBQKTioFBxUCg4qBQeVgoNKwQmVcs/j894W+/pKeQ+Tio5IRaVJQqW8p7OlngKPSo+cStknlqNSH77tsUQ6otI7IqV8B7RpzDPg/3WlNDoZS+Wo84nGffvuSyuNKhjn8aP5iM5/rekrKz031h+/CkwvcV/kKyu9XDBkWg+9iuLy1vYvr/Ryk0D3TaMFUyqhhlr8GKpKlcLcuJhLlihiXS7A7I87tm7kotvScJfh5HlKFUMbqFWwthiXMpy5uuOq65i9XPZO3jWkT1Kq/eRekAqG07bS2/J2ZfeRXxCi1OBuJnMx/UlteBIt7fxGcYhQqqUc7CmO9MN2SXV3PccIUMo9dstPxomaRB+Wqr8fR4DS6q5Vv5B18RNVWpuPyop2IUppxanCZ5MZVUUzdBa2y7hpoDTwSkmHe8CBnz3fkYFaQ5QOKsxkMX1UCg0qBQeVgoNKwUGl4KBScFApOKgUHFQKDioFB5WCg0rBQaXgoFJwUCk4qBQcVAoOKgUHlYKDSsFBpeCgUnBQKTioFBxUCg4qBQeVgoNKwUGl4DRFKd8Nj09R+tEQpRuunezKj4Bo5jG1uZQKWV2cpXTBFU/u0xZKwXWDM7FERCVLqTziORxAr35bjMeJp5DSTiKikqm0x5FMKe8pK+U4Zu58ZEPoNP+DHydTqfxrPxpROnjCSn2f3cMbxIlWcrNoCtlK5UnWDs37SCp2S8gXX4S9ZTwilRiWoBIqR6m8+P2zCkez8/6ELZtn5jO1eFQtdSaqrfc/JznGFIl3OyoAAAAASUVORK5CYII=" vertex="1" parent="1">
          <mxGeometry x="24" y="260" width="130" height="49" as="geometry" />
        </mxCell>
        <mxCell id="_yJtGHrJg5KDsu-0wr2o-11" value="Rancher Cluster" style="text;html=1;strokeColor=none;fillColor=none;align=center;verticalAlign=middle;whiteSpace=wrap;rounded=0;" vertex="1" parent="1">
          <mxGeometry x="24" y="320" width="120" height="30" as="geometry" />
        </mxCell>
        <mxCell id="_yJtGHrJg5KDsu-0wr2o-24" value="Availability Monitor " style="text;html=1;strokeColor=none;fillColor=none;align=center;verticalAlign=middle;whiteSpace=wrap;rounded=0;" vertex="1" parent="1">
          <mxGeometry x="161.5" y="90" width="108.5" height="30" as="geometry" />
        </mxCell>
        <mxCell id="_yJtGHrJg5KDsu-0wr2o-25" value="Deployments Status Monitor" style="text;html=1;strokeColor=none;fillColor=none;align=center;verticalAlign=middle;whiteSpace=wrap;rounded=0;" vertex="1" parent="1">
          <mxGeometry x="138" y="300" width="166" height="30" as="geometry" />
        </mxCell>
        <mxCell id="_yJtGHrJg5KDsu-0wr2o-27" value="" style="sketch=0;outlineConnect=0;fontColor=#232F3E;gradientColor=none;fillColor=#3F8624;strokeColor=none;dashed=0;verticalLabelPosition=bottom;verticalAlign=top;align=center;html=1;fontSize=12;fontStyle=0;aspect=fixed;pointerEvents=1;shape=mxgraph.aws4.backup_recovery_time_objective;" vertex="1" parent="1">
          <mxGeometry x="175.9" y="130" width="31.2" height="30" as="geometry" />
        </mxCell>
        <mxCell id="_yJtGHrJg5KDsu-0wr2o-28" value="" style="sketch=0;outlineConnect=0;fontColor=#232F3E;gradientColor=none;fillColor=#3F8624;strokeColor=none;dashed=0;verticalLabelPosition=bottom;verticalAlign=top;align=center;html=1;fontSize=12;fontStyle=0;aspect=fixed;pointerEvents=1;shape=mxgraph.aws4.backup_recovery_time_objective;" vertex="1" parent="1">
          <mxGeometry x="180" y="260" width="31.2" height="30" as="geometry" />
        </mxCell>
        <mxCell id="_yJtGHrJg5KDsu-0wr2o-30" value="scheduled" style="text;html=1;strokeColor=none;fillColor=none;align=center;verticalAlign=middle;whiteSpace=wrap;rounded=0;" vertex="1" parent="1">
          <mxGeometry x="210" y="130" width="60" height="30" as="geometry" />
        </mxCell>
        <mxCell id="_yJtGHrJg5KDsu-0wr2o-31" value="scheduled" style="text;html=1;strokeColor=none;fillColor=none;align=center;verticalAlign=middle;whiteSpace=wrap;rounded=0;" vertex="1" parent="1">
          <mxGeometry x="211.2" y="260" width="60" height="30" as="geometry" />
        </mxCell>
        <mxCell id="_yJtGHrJg5KDsu-0wr2o-32" value="Data" style="text;html=1;strokeColor=none;fillColor=none;align=center;verticalAlign=middle;whiteSpace=wrap;rounded=0;" vertex="1" parent="1">
          <mxGeometry x="320" y="170" width="60" height="30" as="geometry" />
        </mxCell>
      </root>
    </mxGraphModel>
  </diagram>
</mxfile>
